<svg width="32" height="34" viewBox="0 0 32 34" fill="none" xmlns="http://www.w3.org/2000/svg">
<path d="M16.214 0.45752C15.0663 0.457153 13.9572 0.872014 13.0914 1.62552C12.2257 2.37902 11.6617 3.42029 11.5037 4.5571C11.3457 5.69391 11.6043 6.8495 12.2317 7.81055C12.8592 8.77159 13.8131 9.4732 14.9175 9.78586V16.4485C14.9175 16.7923 15.0541 17.1221 15.2972 17.3653C15.5404 17.6084 15.8702 17.745 16.214 17.745C16.5579 17.745 16.8877 17.6084 17.1308 17.3653C17.374 17.1221 17.5106 16.7923 17.5106 16.4485V9.78586C18.6125 9.47081 19.5635 8.76846 20.1888 7.80803C20.814 6.84761 21.0715 5.69369 20.9137 4.55858C20.7559 3.42346 20.1936 2.38349 19.3301 1.62999C18.4666 0.876484 17.3601 0.46013 16.214 0.45752ZM14.0531 5.21158C14.0531 4.63847 14.2808 4.08882 14.686 3.68357C15.0913 3.27831 15.6409 3.05064 16.214 3.05064C16.7871 3.05064 17.3368 3.27831 17.742 3.68357C18.1473 4.08882 18.375 4.63847 18.375 5.21158C18.375 5.7847 18.1473 6.33434 17.742 6.7396C17.3368 7.14485 16.7871 7.37252 16.214 7.37252C15.6409 7.37252 15.0913 7.14485 14.686 6.7396C14.2808 6.33434 14.0531 5.7847 14.0531 5.21158ZM0.655273 8.2369C0.655273 7.09066 1.11061 5.99138 1.92112 5.18087C2.73163 4.37036 3.83092 3.91502 4.97715 3.91502C6.12338 3.91502 7.22267 4.37036 8.03318 5.18087C8.84369 5.99138 9.29902 7.09066 9.29902 8.2369V14.2875H13.1887V16.8806H6.7059V8.2369C6.7059 7.7784 6.52376 7.33869 6.19956 7.01448C5.87536 6.69028 5.43564 6.50815 4.97715 6.50815C4.51866 6.50815 4.07894 6.69028 3.75474 7.01448C3.43053 7.33869 3.2484 7.7784 3.2484 8.2369V28.9819C3.2484 29.4404 3.43053 29.8801 3.75474 30.2043C4.07894 30.5285 4.51866 30.7106 4.97715 30.7106C5.43564 30.7106 5.87536 30.5285 6.19956 30.2043C6.52376 29.8801 6.7059 29.4404 6.7059 28.9819V20.3381H14.4853V28.9819C14.4853 29.4404 14.6674 29.8801 14.9916 30.2043C15.3158 30.5285 15.7555 30.7106 16.214 30.7106C16.6725 30.7106 17.1122 30.5285 17.4364 30.2043C17.7606 29.8801 17.9428 29.4404 17.9428 28.9819V20.3381H28.3153C28.5445 20.3381 28.7644 20.2471 28.9265 20.085C29.0886 19.9229 29.1796 19.703 29.1796 19.4738V8.2369C29.1796 7.7784 28.9975 7.33869 28.6733 7.01448C28.3491 6.69028 27.9094 6.50815 27.4509 6.50815C26.9924 6.50815 26.5527 6.69028 26.2285 7.01448C25.9043 7.33869 25.7222 7.7784 25.7222 8.2369V16.8806H19.2393V14.2875H23.129V8.2369C23.129 7.09066 23.5844 5.99138 24.3949 5.18087C25.2054 4.37036 26.3047 3.91502 27.4509 3.91502C28.5971 3.91502 29.6964 4.37036 30.5069 5.18087C31.3174 5.99138 31.7728 7.09066 31.7728 8.2369V19.4738C31.7728 20.3908 31.4085 21.2702 30.7601 21.9186C30.1117 22.567 29.2323 22.9313 28.3153 22.9313H20.5359V28.9819C20.5359 30.1281 20.0806 31.2274 19.2701 32.0379C18.4595 32.8484 17.3603 33.3038 16.214 33.3038C15.0678 33.3038 13.9685 32.8484 13.158 32.0379C12.3475 31.2274 11.8921 30.1281 11.8921 28.9819V22.9313H9.29902V28.9819C9.29902 30.1281 8.84369 31.2274 8.03318 32.0379C7.22267 32.8484 6.12338 33.3038 4.97715 33.3038C3.83092 33.3038 2.73163 32.8484 1.92112 32.0379C1.11061 31.2274 0.655273 30.1281 0.655273 28.9819V8.2369Z" fill="#2C295F"/>
</svg>
