<svg width="28" height="36" viewBox="0 0 28 36" fill="none" xmlns="http://www.w3.org/2000/svg">
<path d="M8.66816 3.05064H8.23598C7.89211 3.05064 7.56232 2.91404 7.31917 2.67089C7.07602 2.42774 6.93941 2.09795 6.93941 1.75408C6.93941 1.41021 7.07602 1.08043 7.31917 0.837274C7.56232 0.594121 7.89211 0.45752 8.23598 0.45752H19.4729C19.8167 0.45752 20.1465 0.594121 20.3897 0.837274C20.6328 1.08043 20.7694 1.41021 20.7694 1.75408C20.7694 2.09795 20.6328 2.42774 20.3897 2.67089C20.1465 2.91404 19.8167 3.05064 19.4729 3.05064H19.0407V5.64377H22.066C23.5561 5.64377 24.9852 6.23571 26.0388 7.28937C27.0925 8.34303 27.6844 9.7721 27.6844 11.2622V26.821C27.6843 28.2361 27.15 29.5991 26.1886 30.6375C25.2271 31.6759 23.9091 32.3132 22.4982 32.4221V33.736C22.4982 34.0798 22.3616 34.4096 22.1184 34.6528C21.8753 34.8959 21.5455 35.0325 21.2016 35.0325C20.8577 35.0325 20.5279 34.8959 20.2848 34.6528C20.0416 34.4096 19.905 34.0798 19.905 33.736V32.4394H7.80379V33.736C7.80379 34.0798 7.66719 34.4096 7.42403 34.6528C7.18088 34.8959 6.8511 35.0325 6.50723 35.0325C6.16336 35.0325 5.83357 34.8959 5.59042 34.6528C5.34727 34.4096 5.21066 34.0798 5.21066 33.736V32.4221C3.79968 32.3132 2.48175 31.6759 1.52026 30.6375C0.55878 29.5991 0.0245753 28.2361 0.0244141 26.821V11.2622C0.0244141 9.7721 0.616355 8.34303 1.67002 7.28937C2.72368 6.23571 4.15275 5.64377 5.64285 5.64377H8.66816V3.05064ZM11.2613 3.05064V5.64377H16.4475V3.05064H11.2613ZM22.066 29.8463C22.8683 29.8463 23.6378 29.5275 24.2052 28.9602C24.7726 28.3928 25.0913 27.6233 25.0913 26.821V11.2622C25.0913 10.4598 24.7726 9.69034 24.2052 9.12299C23.6378 8.55563 22.8683 8.23689 22.066 8.23689H5.64285C4.84049 8.23689 4.07099 8.55563 3.50363 9.12299C2.93628 9.69034 2.61754 10.4598 2.61754 11.2622V26.821C2.61754 28.4909 3.97288 29.8463 5.64285 29.8463H22.066Z" fill="#2C295F"/>
</svg>
