<svg width="16" height="20" viewBox="0 0 16 20" fill="none" xmlns="http://www.w3.org/2000/svg">
<path d="M4.22 8.22C4.36063 8.07955 4.55125 8.00066 4.75 8.00066C4.94875 8.00066 5.13937 8.07955 5.28 8.22L8 10.94L10.72 8.22C10.7887 8.14631 10.8715 8.08721 10.9635 8.04622C11.0555 8.00523 11.1548 7.98318 11.2555 7.98141C11.3562 7.97963 11.4562 7.99816 11.5496 8.03588C11.643 8.0736 11.7278 8.12974 11.799 8.20096C11.8703 8.27218 11.9264 8.35701 11.9641 8.4504C12.0018 8.54379 12.0204 8.64382 12.0186 8.74452C12.0168 8.84523 11.9948 8.94454 11.9538 9.03654C11.9128 9.12854 11.8537 9.21134 11.78 9.28L9.06 12L9.53 12.469L11.53 14.469L11.531 14.471L11.781 14.72C11.8526 14.7892 11.9097 14.872 11.949 14.9635C11.9882 15.055 12.0089 15.1535 12.0097 15.2531C12.0105 15.3526 11.9915 15.4514 11.9537 15.5435C11.916 15.6357 11.8602 15.7194 11.7898 15.7898C11.7193 15.8602 11.6356 15.9158 11.5434 15.9535C11.4512 15.9912 11.3524 16.0101 11.2528 16.0092C11.1533 16.0083 11.0549 15.9875 10.9634 15.9482C10.8719 15.9088 10.7892 15.8517 10.72 15.78L10.47 15.531L8.47 13.531L8 13.061L5.28 15.781C5.13848 15.9176 4.949 15.9931 4.75235 15.9913C4.5557 15.9895 4.36763 15.9105 4.22864 15.7714C4.08965 15.6322 4.01086 15.4441 4.00924 15.2475C4.00763 15.0508 4.08331 14.8614 4.22 14.72L6.94 12L4.22 9.28C4.07955 9.13937 4.00066 8.94875 4.00066 8.75C4.00066 8.55125 4.07955 8.36063 4.22 8.22ZM9.75 1.99059e-07C9.63221 -8.5611e-05 9.51606 0.0275728 9.41095 0.0807354C9.30584 0.133898 9.21473 0.21107 9.145 0.306L6.437 4H5V3.75C5 2.88805 4.65759 2.0614 4.0481 1.4519C3.4386 0.84241 2.61195 0.5 1.75 0.5H0.75C0.551088 0.5 0.360322 0.579018 0.21967 0.71967C0.0790175 0.860322 0 1.05109 0 1.25C0 1.44891 0.0790175 1.63968 0.21967 1.78033C0.360322 1.92098 0.551088 2 0.75 2H1.75C2.716 2 3.5 2.784 3.5 3.75V4H2.75C2.02065 4 1.32118 4.28973 0.805456 4.80546C0.289731 5.32118 0 6.02065 0 6.75V17.25C0 17.9793 0.289731 18.6788 0.805456 19.1945C1.32118 19.7103 2.02065 20 2.75 20H13.25C13.6111 20 13.9687 19.9289 14.3024 19.7907C14.636 19.6525 14.9392 19.4499 15.1945 19.1945C15.4499 18.9392 15.6525 18.636 15.7907 18.3024C15.9289 17.9687 16 17.6111 16 17.25V6.75C16 5.892 15.607 5.125 14.99 4.62C14.997 4.581 15 4.541 15 4.5V0.75C15 0.551088 14.921 0.360322 14.7803 0.21967C14.6397 0.0790177 14.4489 1.99059e-07 14.25 1.99059e-07H9.75ZM13.5 4.011C13.4169 4.00359 13.3335 3.99992 13.25 4H8.297L10.13 1.5H13.5V4.011ZM2.75 5.5H13.25C13.94 5.5 14.5 6.06 14.5 6.75V17.25C14.5 17.94 13.94 18.5 13.25 18.5H2.75C2.06 18.5 1.5 17.94 1.5 17.25V6.75C1.5 6.06 2.06 5.5 2.75 5.5Z" fill="#2C295F"/>
</svg>
