<svg width="20" height="20" viewBox="0 0 20 20" fill="none" xmlns="http://www.w3.org/2000/svg">
<path d="M9.184 1.37651e-08C8.90853 -4.08529e-05 8.64076 0.0909152 8.42231 0.258732C8.20386 0.426549 8.04696 0.661827 7.976 0.928L3.29 18.5H0.75C0.551088 18.5 0.360322 18.579 0.21967 18.7197C0.0790175 18.8603 0 19.0511 0 19.25C0 19.4489 0.0790175 19.6397 0.21967 19.7803C0.360322 19.921 0.551088 20 0.75 20H19.25C19.4489 20 19.6397 19.921 19.7803 19.7803C19.921 19.6397 20 19.4489 20 19.25C20 19.0511 19.921 18.8603 19.7803 18.7197C19.6397 18.579 19.4489 18.5 19.25 18.5H16.71L12.023 0.928C11.9521 0.661992 11.7953 0.426837 11.5771 0.259037C11.3588 0.0912366 11.0913 0.000179426 10.816 1.37651e-08H9.184V1.37651e-08ZM4.843 18.5L5.776 15H11.75C11.9489 15 12.1397 14.921 12.2803 14.7803C12.421 14.6397 12.5 14.4489 12.5 14.25C12.5 14.0511 12.421 13.8603 12.2803 13.7197C12.1397 13.579 11.9489 13.5 11.75 13.5H6.176L6.71 11.5H10.75C10.9489 11.5 11.1397 11.421 11.2803 11.2803C11.421 11.1397 11.5 10.9489 11.5 10.75C11.5 10.5511 11.421 10.3603 11.2803 10.2197C11.1397 10.079 10.9489 10 10.75 10H7.11L9.376 1.5H10.624L15.157 18.5H4.843Z" fill="#2C295F"/>
</svg>
