<svg width="19" height="19" viewBox="0 0 19 19" fill="none" xmlns="http://www.w3.org/2000/svg">
<path d="M12.8 0C13.5244 0.00011653 14.228 0.242245 14.7991 0.687935C15.3701 1.13363 15.7759 1.75733 15.952 2.46L16.337 4H17.25C17.4312 4.00001 17.6063 4.06564 17.7429 4.18477C17.8795 4.30389 17.9684 4.46845 17.993 4.648L18 4.75C18 4.93124 17.9344 5.10634 17.8152 5.24293C17.6961 5.37952 17.5316 5.46835 17.352 5.493L17.25 5.5H16.714L16.922 6.326C17.2525 6.52664 17.5258 6.8091 17.7153 7.14612C17.9048 7.48315 18.0043 7.86334 18.004 8.25V16.747C18.004 17.2111 17.8196 17.6562 17.4914 17.9844C17.1632 18.3126 16.7181 18.497 16.254 18.497H14.75C14.2859 18.497 13.8408 18.3126 13.5126 17.9844C13.1844 17.6562 13 17.2111 13 16.747L12.999 15.5H5.004V16.747C5.004 17.2111 4.81963 17.6562 4.49144 17.9844C4.16325 18.3126 3.71813 18.497 3.254 18.497H1.75C1.28587 18.497 0.840752 18.3126 0.512563 17.9844C0.184375 17.6562 0 17.2111 0 16.747V8.25C0 7.435 0.433 6.721 1.082 6.327L1.289 5.5H0.75C0.568762 5.49999 0.393658 5.43436 0.257069 5.31523C0.120481 5.19611 0.0316483 5.03155 0.00699997 4.852L0 4.75C7.6429e-06 4.56876 0.0656426 4.39366 0.184767 4.25707C0.303891 4.12048 0.468446 4.03165 0.648 4.007L0.75 4H1.663L2.049 2.462C2.22475 1.75879 2.63052 1.13451 3.20183 0.688416C3.77313 0.242318 4.47716 5.199e-06 5.202 0H12.799H12.8ZM3.503 15.5H1.499L1.5 16.747C1.5 16.885 1.612 16.997 1.75 16.997H3.254C3.3203 16.997 3.38389 16.9707 3.43078 16.9238C3.47766 16.8769 3.504 16.8133 3.504 16.747V15.5H3.503ZM16.503 15.5H14.498L14.499 16.747C14.499 16.885 14.611 16.997 14.749 16.997H16.253C16.3193 16.997 16.3829 16.9707 16.4298 16.9238C16.4767 16.8769 16.503 16.8133 16.503 16.747V15.5V15.5ZM15.753 7.5H2.25C2.05109 7.5 1.86032 7.57902 1.71967 7.71967C1.57902 7.86032 1.5 8.05109 1.5 8.25V14H16.504V8.25C16.504 8.05109 16.425 7.86032 16.2843 7.71967C16.1437 7.57902 15.9529 7.5 15.754 7.5H15.753ZM7.25 11H10.752C10.9419 11.0003 11.1247 11.0727 11.2633 11.2025C11.402 11.3323 11.4862 11.5099 11.4991 11.6994C11.5119 11.8889 11.4523 12.0762 11.3324 12.2235C11.2125 12.3708 11.0412 12.4671 10.853 12.493L10.752 12.5H7.25C7.05998 12.4999 6.87706 12.4278 6.73821 12.298C6.59936 12.1683 6.51493 11.9907 6.50197 11.8011C6.48902 11.6115 6.54852 11.4241 6.66843 11.2767C6.78835 11.1293 6.95975 11.0329 7.148 11.007L7.25 11H10.752H7.25ZM14 9C14.2652 9 14.5196 9.10536 14.7071 9.29289C14.8946 9.48043 15 9.73478 15 10C15 10.2652 14.8946 10.5196 14.7071 10.7071C14.5196 10.8946 14.2652 11 14 11C13.7348 11 13.4804 10.8946 13.2929 10.7071C13.1054 10.5196 13 10.2652 13 10C13 9.73478 13.1054 9.48043 13.2929 9.29289C13.4804 9.10536 13.7348 9 14 9ZM4 9C4.26522 9 4.51957 9.10536 4.70711 9.29289C4.89464 9.48043 5 9.73478 5 10C5 10.2652 4.89464 10.5196 4.70711 10.7071C4.51957 10.8946 4.26522 11 4 11C3.73478 11 3.48043 10.8946 3.29289 10.7071C3.10536 10.5196 3 10.2652 3 10C3 9.73478 3.10536 9.48043 3.29289 9.29289C3.48043 9.10536 3.73478 9 4 9ZM12.8 1.5H5.201C4.81062 1.49997 4.43144 1.63047 4.12377 1.87074C3.81609 2.11101 3.59758 2.44725 3.503 2.826L2.711 6H15.293L14.497 2.824C14.402 2.44562 14.1834 2.10983 13.8757 1.86995C13.5681 1.63007 13.1891 1.49986 12.799 1.5H12.8Z" fill="#2C295F"/>
</svg>
